<?xml version="1.0" encoding="utf-8"?>
<!-- Generator: Adobe Illustrator 21.0.2, SVG Export Plug-In . SVG Version: 6.00 Build 0)  -->
<svg version="1.1" id="Layer_1" xmlns="http://www.w3.org/2000/svg" xmlns:xlink="http://www.w3.org/1999/xlink" x="0px" y="0px"
	 viewBox="0 0 1058 339" style="enable-background:new 0 0 1058 339;" xml:space="preserve">
<style type="text/css">
	.st0{fill:#FFFFFF;}
</style>
<circle id="path-1_1_" class="st0" cx="37.5" cy="328.5" r="1.5"/>
<circle id="Oval-2_1_" class="st0" cx="1" cy="308" r="1"/>
<circle id="Oval-2_2_" class="st0" cx="51" cy="262" r="1"/>
<circle id="Oval-2_3_" class="st0" cx="143" cy="293" r="1"/>
<circle id="Oval-2_4_" class="st0" cx="194" cy="240" r="1"/>
<circle id="Oval-2_5_" class="st0" cx="163" cy="162" r="1"/>
<circle id="Oval-2_6_" class="st0" cx="216" cy="114" r="1"/>
<circle id="Oval-2_7_" class="st0" cx="180" cy="70" r="1"/>
<circle id="Oval-2_8_" class="st0" cx="270" cy="94" r="1"/>
<circle id="Oval-2_9_" class="st0" cx="340" cy="69" r="1"/>
<circle id="Oval-2_10_" class="st0" cx="387" cy="68" r="1"/>
<circle id="Oval-2_11_" class="st0" cx="364" cy="27" r="1"/>
<circle id="Oval-2_12_" class="st0" cx="433" cy="63" r="1"/>
<circle id="Oval-2_13_" class="st0" cx="539" cy="51" r="1"/>
<circle id="Oval-2_14_" class="st0" cx="511" cy="1" r="1"/>
<circle id="Oval-2_15_" class="st0" cx="610" cy="67" r="1"/>
<circle id="Oval-2_16_" class="st0" cx="639" cy="34" r="1"/>
<circle id="Oval-2_17_" class="st0" cx="680" cy="76" r="1"/>
<circle id="Oval-2_18_" class="st0" cx="740" cy="68" r="1"/>
<circle id="Oval-2_19_" class="st0" cx="712" cy="38" r="1"/>
<circle id="Oval-2_20_" class="st0" cx="934" cy="63" r="1"/>
<circle id="Oval-2_21_" class="st0" cx="1057" cy="61" r="1"/>
<circle id="Oval-2_22_" class="st0" cx="892" cy="126" r="1"/>
<circle id="Oval-2_23_" class="st0" cx="783" cy="135" r="1"/>
<circle id="Oval-2_24_" class="st0" cx="843" cy="197" r="1"/>
<circle id="Oval-2_25_" class="st0" cx="817" cy="268" r="1"/>
<circle id="Oval-2_26_" class="st0" cx="736" cy="267" r="1"/>
<circle id="Oval-2_27_" class="st0" cx="633" cy="281" r="1"/>
<circle id="Oval-2_28_" class="st0" cx="569" cy="273" r="1"/>
<circle id="Oval-2_29_" class="st0" cx="521" cy="288" r="1"/>
<circle id="Oval-2_30_" class="st0" cx="474" cy="273" r="1"/>
<circle id="Oval-2_31_" class="st0" cx="376" cy="279" r="1"/>
<circle id="Oval-2_32_" class="st0" cx="359" cy="303" r="1"/>
<circle id="Oval-2_33_" class="st0" cx="282" cy="238" r="1"/>
<circle id="path-3_1_" class="st0" cx="67.5" cy="234.5" r="1.5"/>
<circle id="path-5_1_" class="st0" cx="169.5" cy="116.5" r="1.5"/>
<circle id="path-7_1_" class="st0" cx="303.5" cy="54.5" r="1.5"/>
<circle id="path-9_1_" class="st0" cx="461.5" cy="38.5" r="1.5"/>
<circle id="path-11_1_" class="st0" cx="571.5" cy="26.5" r="1.5"/>
<circle id="path-13_1_" class="st0" cx="773.5" cy="55.5" r="1.5"/>
<circle id="path-15_1_" class="st0" cx="807.5" cy="236.5" r="1.5"/>
<circle id="path-17_1_" class="st0" cx="698.5" cy="266.5" r="1.5"/>
<circle id="path-19_1_" class="st0" cx="588.5" cy="260.5" r="1.5"/>
<circle id="path-21_1_" class="st0" cx="428.5" cy="301.5" r="1.5"/>
<circle id="path-23_1_" class="st0" cx="312.5" cy="275.5" r="1.5"/>
<circle id="path-25_1_" class="st0" cx="998.5" cy="77.5" r="1.5"/>
</svg>
